<mxfile host="app.diagrams.net" agent="Mozilla/5.0 (Windows NT 10.0; Win64; x64) AppleWebKit/537.36 (KHTML, like Gecko) Chrome/128.0.0.0 Safari/537.36" version="24.7.16">
  <diagram name="Página-1" id="jNjH8Av_dtd9iKUkDj6t">
    <mxGraphModel dx="880" dy="460" grid="1" gridSize="10" guides="1" tooltips="1" connect="1" arrows="1" fold="1" page="1" pageScale="1" pageWidth="827" pageHeight="1169" math="0" shadow="0">
      <root>
        <mxCell id="0" />
        <mxCell id="1" parent="0" />
        <mxCell id="Hl8j8t302Fdscv5aE42S-2" value="Mercadinho Baratino" style="rounded=1;whiteSpace=wrap;html=1;" vertex="1" parent="1">
          <mxGeometry x="30" y="230" width="120" height="60" as="geometry" />
        </mxCell>
        <mxCell id="Hl8j8t302Fdscv5aE42S-16" style="edgeStyle=orthogonalEdgeStyle;rounded=0;orthogonalLoop=1;jettySize=auto;html=1;entryX=0;entryY=0.5;entryDx=0;entryDy=0;" edge="1" parent="1" source="Hl8j8t302Fdscv5aE42S-3" target="Hl8j8t302Fdscv5aE42S-10">
          <mxGeometry relative="1" as="geometry" />
        </mxCell>
        <mxCell id="Hl8j8t302Fdscv5aE42S-3" value="Login&lt;br&gt;Venda / Gestão" style="rounded=1;whiteSpace=wrap;html=1;" vertex="1" parent="1">
          <mxGeometry x="210" y="100" width="120" height="40" as="geometry" />
        </mxCell>
        <mxCell id="Hl8j8t302Fdscv5aE42S-17" style="edgeStyle=orthogonalEdgeStyle;rounded=0;orthogonalLoop=1;jettySize=auto;html=1;entryX=0;entryY=0.5;entryDx=0;entryDy=0;" edge="1" parent="1" source="Hl8j8t302Fdscv5aE42S-4" target="Hl8j8t302Fdscv5aE42S-11">
          <mxGeometry relative="1" as="geometry" />
        </mxCell>
        <mxCell id="Hl8j8t302Fdscv5aE42S-4" value="Cadastrar Estoque" style="rounded=1;whiteSpace=wrap;html=1;" vertex="1" parent="1">
          <mxGeometry x="210" y="180" width="120" height="30" as="geometry" />
        </mxCell>
        <mxCell id="Hl8j8t302Fdscv5aE42S-7" value="Cadastrar Usuário" style="rounded=1;whiteSpace=wrap;html=1;" vertex="1" parent="1">
          <mxGeometry x="210" y="245" width="120" height="30" as="geometry" />
        </mxCell>
        <mxCell id="Hl8j8t302Fdscv5aE42S-21" style="edgeStyle=orthogonalEdgeStyle;rounded=0;orthogonalLoop=1;jettySize=auto;html=1;entryX=0;entryY=0.5;entryDx=0;entryDy=0;" edge="1" parent="1" source="Hl8j8t302Fdscv5aE42S-8" target="Hl8j8t302Fdscv5aE42S-13">
          <mxGeometry relative="1" as="geometry" />
        </mxCell>
        <mxCell id="Hl8j8t302Fdscv5aE42S-8" value="Realizar Venda" style="rounded=1;whiteSpace=wrap;html=1;" vertex="1" parent="1">
          <mxGeometry x="210" y="310" width="120" height="30" as="geometry" />
        </mxCell>
        <mxCell id="Hl8j8t302Fdscv5aE42S-22" style="edgeStyle=orthogonalEdgeStyle;rounded=0;orthogonalLoop=1;jettySize=auto;html=1;entryX=0;entryY=0.5;entryDx=0;entryDy=0;" edge="1" parent="1" source="Hl8j8t302Fdscv5aE42S-9" target="Hl8j8t302Fdscv5aE42S-14">
          <mxGeometry relative="1" as="geometry" />
        </mxCell>
        <mxCell id="Hl8j8t302Fdscv5aE42S-9" value="Exportar Dados" style="rounded=1;whiteSpace=wrap;html=1;" vertex="1" parent="1">
          <mxGeometry x="210" y="370" width="120" height="30" as="geometry" />
        </mxCell>
        <mxCell id="Hl8j8t302Fdscv5aE42S-20" style="edgeStyle=orthogonalEdgeStyle;rounded=0;orthogonalLoop=1;jettySize=auto;html=1;entryX=0;entryY=0.5;entryDx=0;entryDy=0;" edge="1" parent="1" source="Hl8j8t302Fdscv5aE42S-10" target="Hl8j8t302Fdscv5aE42S-7">
          <mxGeometry relative="1" as="geometry" />
        </mxCell>
        <mxCell id="Hl8j8t302Fdscv5aE42S-10" value="email&lt;div&gt;senha&lt;/div&gt;&lt;div&gt;tipo&lt;/div&gt;" style="rounded=1;whiteSpace=wrap;html=1;" vertex="1" parent="1">
          <mxGeometry x="430" y="40" width="120" height="60" as="geometry" />
        </mxCell>
        <mxCell id="Hl8j8t302Fdscv5aE42S-11" value="Código do Produto&lt;div&gt;Foto do Produto&lt;/div&gt;&lt;div&gt;Nome do Produto&lt;/div&gt;&lt;div&gt;Fabricante&lt;/div&gt;&lt;div&gt;Data de Cadastro&lt;/div&gt;&lt;div&gt;Data de Vencimento&lt;/div&gt;&lt;div&gt;Valor de Compra&lt;/div&gt;&lt;div&gt;Valor de Venda&lt;/div&gt;" style="rounded=1;whiteSpace=wrap;html=1;" vertex="1" parent="1">
          <mxGeometry x="430" y="110" width="120" height="130" as="geometry" />
        </mxCell>
        <mxCell id="Hl8j8t302Fdscv5aE42S-13" value="Código do Produto&lt;div&gt;Quantidade do Produto&lt;/div&gt;&lt;div&gt;Tipo de Pagamento&lt;/div&gt;" style="rounded=1;whiteSpace=wrap;html=1;" vertex="1" parent="1">
          <mxGeometry x="430" y="250" width="120" height="110" as="geometry" />
        </mxCell>
        <mxCell id="Hl8j8t302Fdscv5aE42S-14" value="De usuários&lt;div&gt;De estoque&lt;/div&gt;&lt;div&gt;De Venda&lt;/div&gt;" style="rounded=1;whiteSpace=wrap;html=1;" vertex="1" parent="1">
          <mxGeometry x="430" y="370" width="120" height="110" as="geometry" />
        </mxCell>
      </root>
    </mxGraphModel>
  </diagram>
</mxfile>
